<?xml version="1.0" encoding="UTF-8" standalone="no" ?>
<!DOCTYPE svg PUBLIC "-//W3C//DTD SVG 1.1//EN" "http://www.w3.org/Graphics/SVG/1.1/DTD/svg11.dtd">
<svg xmlns="http://www.w3.org/2000/svg" xmlns:xlink="http://www.w3.org/1999/xlink" version="1.1" width="1280" height="1024" viewBox="0 0 1280 1024" xml:space="preserve">
<desc>Created with Fabric.js 4.4.0</desc>
<defs>
</defs>
<g transform="matrix(1 0 0 1 640 512)" id="background-logo"  >
<rect style="stroke: none; stroke-width: 0; stroke-dasharray: none; stroke-linecap: butt; stroke-dashoffset: 0; stroke-linejoin: miter; stroke-miterlimit: 4; fill: rgb(255,255,255); fill-opacity: 0; fill-rule: nonzero; opacity: 1;"  paint-order="stroke"  x="-640" y="-512" rx="0" ry="0" width="1280" height="1024" />
</g>
<g transform="matrix(1.9211538461538462 0 0 1.9211538461538462 640 382.9384814910798)" id="logo-logo"  >
<g style=""  paint-order="stroke"   >
		<g transform="matrix(2.7502767645767614 0 0 -2.7502767645767614 -37.07908917104521 -46.93622336542336)"  >
<linearGradient id="SVGID_1_5_449245" gradientUnits="userSpaceOnUse" gradientTransform="matrix(61.328522 0 0 -61.328522 220.1875 386.39899)"  x1="0" y1="0" x2="1" y2="0">
<stop offset="0%" style="stop-color:rgb(0,121,165);stop-opacity: 1"/>
<stop offset="100%" style="stop-color:rgb(0,34,100);stop-opacity: 1"/>
<stop offset="100%" style="stop-color:rgb(0,34,100);stop-opacity: 1"/>
</linearGradient>
<path style="stroke: none; stroke-width: 1; stroke-dasharray: none; stroke-linecap: butt; stroke-dashoffset: 0; stroke-linejoin: miter; stroke-miterlimit: 4; fill: url(#SVGID_1_5_449245); fill-rule: nonzero; opacity: 1;"  paint-order="stroke"  transform=" translate(-250.85205169260797, -386.3990000367804)" d="M 267.5 401.458 C 246.437 372.771 220.677 380.264 220.677 380.264 L 220.677 380.264 C 220.63899999999998 380.16 220.52599999999998 379.51800000000003 220.52599999999998 379.51800000000003 L 220.52599999999998 379.51800000000003 L 220.255 377.39200000000005 L 220.188 370.9270000000001 L 226.063 362.5830000000001 L 243.813 364.58400000000006 L 265.25 376.4920000000001 L 281.5 400.0210000000001 C 281.5 400.0210000000001 281.992 410.21600000000007 277.537 410.2150000000001 L 277.537 410.2150000000001 C 275.45599999999996 410.2140000000001 272.294 407.9880000000001 267.5 401.4580000000001" stroke-linecap="round" />
</g>
		<g transform="matrix(2.7502767645767614 0 0 -2.7502767645767614 22.534392670559726 75.2943269838184)"  >
<linearGradient id="SVGID_2_6_449246" gradientUnits="userSpaceOnUse" gradientTransform="matrix(51.071045 0 0 -51.071045 246.99146 341.95602)"  x1="0" y1="0" x2="1" y2="0">
<stop offset="0%" style="stop-color:rgb(0,121,165);stop-opacity: 1"/>
<stop offset="100%" style="stop-color:rgb(0,34,100);stop-opacity: 1"/>
<stop offset="100%" style="stop-color:rgb(0,34,100);stop-opacity: 1"/>
</linearGradient>
<path style="stroke: none; stroke-width: 1; stroke-dasharray: none; stroke-linecap: butt; stroke-dashoffset: 0; stroke-linejoin: miter; stroke-miterlimit: 4; fill: url(#SVGID_2_6_449246); fill-rule: nonzero; opacity: 1;"  paint-order="stroke"  transform=" translate(-272.5275, -341.9559999999999)" d="M 276.525 349.258 C 271.125 334.39599999999996 246.99199999999996 327.801 246.99199999999996 327.801 L 246.99199999999996 327.801 L 248.20899999999997 327.371 L 251.18299999999996 326.62699999999995 L 259.89 325.4429999999999 L 271.813 326.33399999999995 L 287.375 336.08299999999997 L 298.063 357.89599999999996 C 298.063 357.89599999999996 295.566 358.46899999999994 292.229 358.46899999999994 L 292.229 358.46899999999994 C 286.865 358.46899999999994 279.33299999999997 356.9869999999999 276.525 349.2579999999999" stroke-linecap="round" />
</g>
		<g transform="matrix(2.7502767645767614 0 0 -2.7502767645767614 13.792190131011239 -19.688763314612913)"  >
<linearGradient id="SVGID_3_7_449247" gradientUnits="userSpaceOnUse" gradientTransform="matrix(70.302368 0 0 -70.302368 234.19763 376.49222)"  x1="0" y1="0" x2="1" y2="0">
<stop offset="0%" style="stop-color:rgb(0,121,165);stop-opacity: 1"/>
<stop offset="100%" style="stop-color:rgb(0,34,100);stop-opacity: 1"/>
<stop offset="100%" style="stop-color:rgb(0,34,100);stop-opacity: 1"/>
</linearGradient>
<path style="stroke: none; stroke-width: 1; stroke-dasharray: none; stroke-linecap: butt; stroke-dashoffset: 0; stroke-linejoin: miter; stroke-miterlimit: 4; fill: url(#SVGID_3_7_449247); fill-rule: nonzero; opacity: 1;"  paint-order="stroke"  transform=" translate(-269.34883716426395, -376.49182981967556)" d="M 248.417 358.75 C 205.5 351.75 273.416 351.916 273.416 351.916 L 273.416 351.916 L 288.417 357.417 L 303.417 371.83299999999997 L 304.5 387.95799999999997 L 299.063 397.63 L 296.56899999999996 400.683 L 296.234 401.068 C 296.234 401.068 291.334 365.75 248.41699999999997 358.75" stroke-linecap="round" />
</g>
		<g transform="matrix(2.7502767645767614 0 0 -2.7502767645767614 0 0)"  >
<linearGradient id="SVGID_4_8_449248" gradientUnits="userSpaceOnUse" gradientTransform="matrix(-51.250004 77.375 77.375 51.250004 291.25159 329.55997)"  x1="0" y1="0" x2="1" y2="0">
<stop offset="0%" style="stop-color:rgb(0,121,165);stop-opacity: 1"/>
<stop offset="99.9999%" style="stop-color:rgb(119,211,255);stop-opacity: 1"/>
<stop offset="100%" style="stop-color:rgb(119,211,255);stop-opacity: 1"/>
</linearGradient>
<path style="stroke: none; stroke-width: 1; stroke-dasharray: none; stroke-linecap: butt; stroke-dashoffset: 0; stroke-linejoin: miter; stroke-miterlimit: 4; fill: url(#SVGID_4_8_449248); fill-rule: nonzero; opacity: 1;"  paint-order="stroke"  transform=" translate(-264.334, -369.333)" d="M 231.625 400.221 C 219.126 384.813 251.379 379.217 275.584 405.75 L 275.584 405.75 C 275.584 405.75 260.735 376.337 236.25 371.08299999999997 L 236.25 371.08299999999997 C 220.353 367.67199999999997 219.816 375.69599999999997 220.677 380.26399999999995 L 220.677 380.26399999999995 C 219.803 376.76399999999995 219.334 373.1039999999999 219.334 369.33299999999997 L 219.334 369.33299999999997 C 219.334 363.89399999999995 220.298 358.681 222.066 353.856 L 222.066 353.856 L 222.068 353.858 C 228.5 338.083 266.625 333.333 289.875 348.958 L 289.875 348.958 C 289.875 337.50100000000003 267.337 323.16900000000004 246.992 327.80100000000004 L 246.992 327.80100000000004 C 252.32899999999998 325.57000000000005 258.187 324.333 264.334 324.333 L 264.334 324.333 C 289.186 324.333 309.334 344.48 309.334 369.333 L 309.334 369.333 C 309.334 381.71700000000004 304.329 392.93100000000004 296.234 401.06800000000004 L 296.234 401.06800000000004 C 315.75 376.083 279.625 352.084 248.417 358.75 L 248.417 358.75 C 277.317 368.314 302.312 401.282 281.274 411.024 L 281.274 411.024 C 276.044 413.151 270.328 414.333 264.334 414.333 L 264.334 414.333 C 251.44400000000002 414.333 239.829 408.90500000000003 231.625 400.221 M 296.234 401.068 C 296.234 401.068 296.234 401.068 296.234 401.068 L 296.234 401.068 L 296.233 401.06899999999996 C 296.234 401.068 296.234 401.068 296.234 401.068" stroke-linecap="round" />
</g>
</g>
</g>
<g transform="matrix(1.9211538461538462 0 0 1.9211538461538462 641.129309377346 688.292651092164)" id="text-logo"  >
<g style=""  paint-order="stroke"   >
		<g transform="matrix(1 0 0 1 0 0)" id="text-logo-path-0"  >
<path style="stroke: none; stroke-width: 0; stroke-dasharray: none; stroke-linecap: butt; stroke-dashoffset: 0; stroke-linejoin: miter; stroke-miterlimit: 4; fill: rgb(0,76,132); fill-rule: nonzero; opacity: 1;"  paint-order="stroke"  transform=" translate(-248.84, 19.825)" d="M 5.48 -7.63 L 5.48 -7.63 L 5.48 -39.64 L 9.77 -39.64 L 9.77 -7.63 Q 9.77 -2.74 15.41 -2.74 Q 21.06 -2.74 21.06 -7.63 L 21.06 -7.63 L 21.06 -39.64 L 25.32 -39.64 L 25.32 -7.63 Q 25.32 -2.74 30.96 -2.74 Q 36.61 -2.74 36.61 -7.63 L 36.61 -7.63 L 36.61 -39.64 L 40.87 -39.64 L 40.87 -7.63 Q 40.87 -3.6 38.3 -1.34 Q 35.74 0.92 30.71 0.92 Q 25.67 0.92 23.17 -2.62 L 23.17 -2.62 Q 20.79 0.92 15.7 0.92 Q 10.6 0.92 8.04 -1.34 Q 5.48 -3.6 5.48 -7.63 Z M 51.53 -7.63 L 51.53 -7.63 L 51.53 -32.02 Q 51.53 -36.1 54.12 -38.33 Q 56.71 -40.57 61.86 -40.57 Q 67.02 -40.57 69.64 -38.33 Q 72.26 -36.1 72.26 -32.02 L 72.26 -32.02 L 72.26 -7.63 Q 72.26 -3.54 69.67 -1.31 Q 67.08 0.92 61.92 0.92 Q 56.77 0.92 54.15 -1.31 Q 51.53 -3.54 51.53 -7.63 Z M 55.79 -32.02 L 55.79 -7.63 Q 55.79 -2.74 61.89 -2.74 Q 68 -2.74 68 -7.63 L 68 -7.63 L 68 -32.02 Q 68 -36.9 61.89 -36.9 Q 55.79 -36.9 55.79 -32.02 L 55.79 -32.02 Z M 87.81 0 L 83.55 0 L 83.55 -39.64 L 85.36 -39.64 L 87.15 -35.15 Q 89.12 -40.57 93.38 -40.57 L 93.38 -40.57 Q 100.64 -40.57 100.61 -32.64 L 100.61 -32.64 L 100.61 -28.68 L 96.53 -28.68 L 96.53 -32.88 Q 96.53 -36.9 93.17 -36.9 L 93.17 -36.9 Q 91.14 -36.9 89.47 -34.58 Q 87.81 -32.26 87.81 -27.88 L 87.81 -27.88 L 87.81 0 Z M 123.37 0 L 107.94 0 L 107.94 -39.64 L 112.2 -39.64 L 112.2 -3.66 L 123.37 -3.66 L 123.37 0 Z M 140.5 0 L 130.67 0 L 130.67 -39.64 L 140.5 -39.64 Q 145.26 -39.64 147.72 -37.4 Q 150.18 -35.15 150.18 -31.1 L 150.18 -31.1 L 150.18 -8.55 Q 150.18 -4.47 147.75 -2.23 Q 145.32 0 140.5 0 L 140.5 0 Z M 134.93 -35.98 L 134.93 -3.66 L 140.5 -3.66 Q 145.92 -3.66 145.92 -8.55 L 145.92 -8.55 L 145.92 -31.1 Q 145.92 -33.42 144.52 -34.7 Q 143.12 -35.98 140.5 -35.98 L 140.5 -35.98 L 134.93 -35.98 Z M 174.57 -7.63 L 174.57 -7.63 L 174.57 -32.02 Q 174.57 -36.1 177.16 -38.33 Q 179.75 -40.57 184.91 -40.57 Q 190.06 -40.57 192.68 -38.33 Q 195.3 -36.1 195.3 -32.02 L 195.3 -32.02 L 195.3 -7.63 Q 195.3 -3.54 192.71 -1.31 Q 190.12 0.92 184.97 0.92 Q 179.81 0.92 177.19 -1.31 Q 174.57 -3.54 174.57 -7.63 Z M 178.83 -32.02 L 178.83 -7.63 Q 178.83 -2.74 184.94 -2.74 Q 191.04 -2.74 191.04 -7.63 L 191.04 -7.63 L 191.04 -32.02 Q 191.04 -36.9 184.94 -36.9 Q 178.83 -36.9 178.83 -32.02 L 178.83 -32.02 Z M 210.85 0 L 206.59 0 L 206.59 -39.64 L 208.41 -39.64 L 209.93 -35.68 Q 212.84 -40.57 218.06 -40.57 L 218.06 -40.57 Q 227.02 -40.57 227.02 -32.02 L 227.02 -32.02 L 227.02 0 L 222.76 0 L 222.76 -32.02 Q 222.76 -34.34 221.75 -35.62 Q 220.74 -36.9 218.06 -36.9 Q 215.38 -36.9 213.11 -34.83 Q 210.85 -32.76 210.85 -30.8 L 210.85 -30.8 L 210.85 0 Z M 237.69 -7.63 L 237.69 -7.63 L 237.69 -32.02 Q 237.69 -36.1 240.19 -38.33 Q 242.69 -40.57 247.69 -40.57 Q 252.7 -40.57 255.26 -38.33 Q 257.82 -36.1 257.82 -32.02 L 257.82 -32.02 L 257.82 -18.62 L 241.94 -18.62 L 241.94 -7.63 Q 241.94 -2.74 247.75 -2.74 Q 253.56 -2.74 253.56 -7.63 L 253.56 -7.63 L 253.56 -10.99 L 257.82 -10.99 L 257.82 -7.63 Q 257.82 -3.54 255.32 -1.31 Q 252.82 0.92 247.81 0.92 Q 242.81 0.92 240.25 -1.31 Q 237.69 -3.54 237.69 -7.63 Z M 241.94 -32.02 L 241.94 -22.28 L 253.56 -22.28 L 253.56 -32.02 Q 253.56 -36.9 247.75 -36.9 Q 241.94 -36.9 241.94 -32.02 L 241.94 -32.02 Z M 281.92 -7.63 L 281.92 -7.63 L 281.92 -12.81 L 286.18 -12.81 L 286.18 -7.39 Q 286.18 -5.18 287.71 -3.96 Q 289.24 -2.74 292.22 -2.74 Q 295.2 -2.74 296.73 -3.96 Q 298.27 -5.18 298.27 -7.28 Q 298.27 -9.38 297.81 -10.63 Q 297.35 -11.88 295.95 -13.28 L 295.95 -13.28 L 285.19 -23.8 Q 283.32 -25.67 282.62 -27.48 Q 281.92 -29.28 281.92 -32.02 L 281.92 -32.02 Q 281.92 -36.1 284.45 -38.33 Q 286.98 -40.57 292.1 -40.57 L 292.1 -40.57 Q 301.93 -40.57 301.93 -32.02 L 301.93 -32.02 L 301.93 -26.84 L 297.64 -26.84 L 297.64 -32.26 Q 297.64 -34.46 296.21 -35.68 Q 294.78 -36.9 291.91 -36.9 Q 289.04 -36.9 287.61 -35.68 Q 286.18 -34.46 286.18 -32.33 Q 286.18 -30.2 286.61 -28.98 Q 287.04 -27.76 288.5 -26.42 L 288.5 -26.42 L 299.43 -15.94 Q 301.19 -13.97 301.86 -12.17 Q 302.53 -10.37 302.53 -7.63 L 302.53 -7.63 Q 302.53 0.92 292.22 0.92 Q 281.92 0.92 281.92 -7.63 Z M 311.34 -19.63 L 311.34 -19.63 L 311.34 -39.64 L 315.6 -39.64 L 315.6 -19.63 Q 315.6 -14.74 321.68 -14.74 L 321.68 -14.74 Q 321.68 -14.74 321.71 -14.77 L 321.71 -14.77 Q 327.82 -14.77 327.82 -19.63 L 327.82 -19.63 L 327.82 -39.64 L 332.07 -39.64 L 332.07 -19.63 Q 332.07 -12.12 323.91 -11.23 L 323.91 -11.23 L 323.91 0 L 319.65 0 L 319.65 -11.23 Q 311.34 -12.15 311.34 -19.63 Z M 340.92 -7.63 L 340.92 -7.63 L 340.92 -12.81 L 345.18 -12.81 L 345.18 -7.39 Q 345.18 -5.18 346.71 -3.96 Q 348.25 -2.74 351.23 -2.74 Q 354.21 -2.74 355.74 -3.96 Q 357.27 -5.18 357.27 -7.28 Q 357.27 -9.38 356.81 -10.63 Q 356.35 -11.88 354.95 -13.28 L 354.95 -13.28 L 344.2 -23.8 Q 342.32 -25.67 341.62 -27.48 Q 340.92 -29.28 340.92 -32.02 L 340.92 -32.02 Q 340.92 -36.1 343.45 -38.33 Q 345.98 -40.57 351.11 -40.57 L 351.11 -40.57 Q 360.94 -40.57 360.94 -32.02 L 360.94 -32.02 L 360.94 -26.84 L 356.65 -26.84 L 356.65 -32.26 Q 356.65 -34.46 355.22 -35.68 Q 353.79 -36.9 350.91 -36.9 Q 348.04 -36.9 346.61 -35.68 Q 345.18 -34.46 345.18 -32.33 Q 345.18 -30.2 345.61 -28.98 Q 346.04 -27.76 347.5 -26.42 L 347.5 -26.42 L 358.43 -15.94 Q 360.19 -13.97 360.86 -12.17 Q 361.53 -10.37 361.53 -7.63 L 361.53 -7.63 Q 361.53 0.92 351.23 0.92 Q 340.92 0.92 340.92 -7.63 Z M 371.57 -7.03 L 371.57 -7.03 L 371.57 -39.64 L 385 -39.64 L 385 -35.98 L 375.83 -35.98 L 375.83 -6.76 Q 375.83 -5.06 376.72 -3.9 Q 377.62 -2.74 379.22 -2.74 Q 380.83 -2.74 381.7 -3.87 Q 382.56 -5 382.56 -6.76 L 382.56 -6.76 L 382.56 -14.03 L 386.82 -14.03 L 386.82 -7.03 Q 386.82 -3.19 384.78 -1.13 Q 382.74 0.92 379.25 0.92 Q 375.77 0.92 373.67 -1.12 Q 371.57 -3.16 371.57 -7.03 Z M 394.44 -7.63 L 394.44 -7.63 L 394.44 -32.02 Q 394.44 -36.1 396.95 -38.33 Q 399.45 -40.57 404.45 -40.57 Q 409.46 -40.57 412.02 -38.33 Q 414.58 -36.1 414.58 -32.02 L 414.58 -32.02 L 414.58 -18.62 L 398.7 -18.62 L 398.7 -7.63 Q 398.7 -2.74 404.51 -2.74 Q 410.32 -2.74 410.32 -7.63 L 410.32 -7.63 L 410.32 -10.99 L 414.58 -10.99 L 414.58 -7.63 Q 414.58 -3.54 412.08 -1.31 Q 409.58 0.92 404.57 0.92 Q 399.57 0.92 397.01 -1.31 Q 394.44 -3.54 394.44 -7.63 Z M 398.7 -32.02 L 398.7 -22.28 L 410.32 -22.28 L 410.32 -32.02 Q 410.32 -36.9 404.51 -36.9 Q 398.7 -36.9 398.7 -32.02 L 398.7 -32.02 Z M 430.13 0 L 425.87 0 L 425.87 -39.64 L 427.69 -39.64 L 429.2 -35.74 Q 430.48 -37.95 432.57 -39.26 Q 434.65 -40.57 437.1 -40.57 L 437.1 -40.57 Q 443.26 -40.57 444.96 -36.1 L 444.96 -36.1 Q 447.88 -40.57 452.65 -40.57 L 452.65 -40.57 Q 461.25 -40.57 461.25 -32.02 L 461.25 -32.02 L 461.25 0 L 456.96 0 L 456.96 -32.02 Q 456.96 -36.9 452.59 -36.9 L 452.59 -36.9 Q 450.02 -36.9 447.85 -34.83 Q 445.68 -32.76 445.68 -30.8 L 445.68 -30.8 L 445.68 0 L 441.42 0 L 441.42 -32.02 Q 441.42 -36.9 437.04 -36.9 L 437.04 -36.9 Q 434.48 -36.9 432.3 -34.92 Q 430.13 -32.94 430.13 -30.98 L 430.13 -30.98 L 430.13 0 Z M 471.59 -7.63 L 471.59 -7.63 L 471.59 -12.81 L 475.85 -12.81 L 475.85 -7.39 Q 475.85 -5.18 477.38 -3.96 Q 478.92 -2.74 481.89 -2.74 Q 484.87 -2.74 486.41 -3.96 Q 487.94 -5.18 487.94 -7.28 Q 487.94 -9.38 487.48 -10.63 Q 487.02 -11.88 485.62 -13.28 L 485.62 -13.28 L 474.86 -23.8 Q 472.99 -25.67 472.29 -27.48 Q 471.59 -29.28 471.59 -32.02 L 471.59 -32.02 Q 471.59 -36.1 474.12 -38.33 Q 476.65 -40.57 481.77 -40.57 L 481.77 -40.57 Q 491.6 -40.57 491.6 -32.02 L 491.6 -32.02 L 491.6 -26.84 L 487.31 -26.84 L 487.31 -32.26 Q 487.31 -34.46 485.89 -35.68 Q 484.46 -36.9 481.58 -36.9 Q 478.71 -36.9 477.28 -35.68 Q 475.85 -34.46 475.85 -32.33 Q 475.85 -30.2 476.28 -28.98 Q 476.71 -27.76 478.17 -26.42 L 478.17 -26.42 L 489.1 -15.94 Q 490.86 -13.97 491.53 -12.17 Q 492.2 -10.37 492.2 -7.63 L 492.2 -7.63 Q 492.2 0.92 481.89 0.92 Q 471.59 0.92 471.59 -7.63 Z" stroke-linecap="round" />
</g>
</g>
</g>
<g transform="matrix(1.9211538461538462 0 0 1.9211538461538462 640 857.3730535001785)" id="tagline-9f375426-a5d2-4584-90db-810a91ddfd46-logo"  >
<g style=""  paint-order="stroke"   >
		<g transform="matrix(1 0 0 1 0 0)" id="tagline-9f375426-a5d2-4584-90db-810a91ddfd46-logo-path-0"  >
<path style="stroke: none; stroke-width: 0; stroke-dasharray: none; stroke-linecap: butt; stroke-dashoffset: 0; stroke-linejoin: miter; stroke-miterlimit: 4; fill: rgb(0,76,132); fill-rule: nonzero; opacity: 1;"  paint-order="stroke"  transform=" translate(0, 0)" d="" stroke-linecap="round" />
</g>
</g>
</g>
</svg>